<svg width="600" height="812" viewBox="0 0 600 812" fill="none" xmlns="http://www.w3.org/2000/svg">
<g clip-path="url(#clip0_94_5440)">
<rect width="600" height="812" fill="#DEEAF8"/>
<ellipse cx="277" cy="217" rx="194" ry="202" fill="#407FC3"/>
<rect x="-36.3403" y="586.092" width="379.59" height="456.475" transform="rotate(-117.907 -36.3403 586.092)" fill="#407FC3"/>
<g clip-path="url(#clip1_94_5440)">
<path d="M143.525 657.337C143.525 657.118 143.589 656.936 143.717 656.79C143.849 656.644 144.045 656.571 144.305 656.571C144.564 656.571 144.76 656.644 144.893 656.79C145.029 656.936 145.098 657.118 145.098 657.337C145.098 657.547 145.029 657.722 144.893 657.863C144.76 658.005 144.564 658.075 144.305 658.075C144.045 658.075 143.849 658.005 143.717 657.863C143.589 657.722 143.525 657.547 143.525 657.337ZM143.532 651.301C143.532 651.082 143.596 650.9 143.724 650.754C143.856 650.608 144.052 650.535 144.312 650.535C144.571 650.535 144.767 650.608 144.899 650.754C145.036 650.9 145.104 651.082 145.104 651.301C145.104 651.51 145.036 651.686 144.899 651.827C144.767 651.968 144.571 652.039 144.312 652.039C144.052 652.039 143.856 651.968 143.724 651.827C143.596 651.686 143.532 651.51 143.532 651.301Z" fill="black" fill-opacity="0.85"/>
</g>
</g>
<defs>
<clipPath id="clip0_94_5440">
<rect width="600" height="812" fill="white"/>
</clipPath>
<clipPath id="clip1_94_5440">
<rect width="57" height="22" fill="white" transform="translate(144 642)"/>
</clipPath>
</defs>
</svg>
