<svg width="600" height="794" viewBox="0 0 600 794" fill="none" xmlns="http://www.w3.org/2000/svg">
<g clip-path="url(#clip0_63_5439)">
<rect width="600" height="794" fill="#DEEAF8"/>
<path d="M0.000424374 86.0795C99.3294 -55.6226 161.352 185.371 267.84 0H600V119.611C557.942 147.238 566.263 198.548 543.892 223.502C521.521 248.456 429.192 308.671 408.681 324.654C388.171 340.637 -0.468707 521.945 0.000424374 324.654C0.469555 127.362 0.000424374 86.0795 0.000424374 86.0795Z" fill="#407FC4"/>
<path opacity="0.5" d="M65.9811 -11.063C63.0015 -2.12394 59.0631 13.8573 72.0427 16.3968C76.1812 17.2065 81.1058 17.3618 85.3153 17.05C89.1191 16.7682 97.0204 16.2139 97.0204 16.2139M67.392 -12.4738C72.4858 -16.2556 77.6836 -17.4156 83.8783 -18.5876C89.1555 -19.586 94.0947 -18.5876 98.4835 -17.5425C102.872 -16.4974 107.592 -15.6878 109.823 -10.8017C112.313 -5.34676 113.327 2.83177 112.331 8.68925C111.9 11.2247 111.716 13.7376 109.692 15.5085C107.033 17.835 103.778 19.1209 100.312 19.5059M109.718 -18.1173C113.93 -17.2459 115.412 -15.0261 114.421 -11.063M82.0258 -5.43743C80.2404 -2.10401 80.4252 1.70715 81.3962 5.39722C82.3678 9.08907 89.0608 6.873 91.3769 5.13594C98.635 -0.307654 87.8189 -7.30164 82.0258 -5.43743Z" stroke="#407FC3" stroke-width="2" stroke-linecap="round" stroke-linejoin="round"/>
<path opacity="0.5" d="M573.215 208.485C570.651 211.338 568.162 214.359 565.011 216.59C563.491 217.665 561.193 219.535 559.706 220.567C558.207 221.609 553.699 222.109 555.614 218.28C557.454 214.6 560.942 211.36 563.818 208.485C566.226 206.077 568.981 202.911 572.32 201.797C574.611 201.034 576.141 200.569 578.535 201.549C580.453 202.333 584.559 204.147 584.651 206.496M584.651 206.496C584.726 208.396 581.139 210.965 579.928 212.09C577.032 214.778 573.83 218.28 571.226 220.567C568.623 222.855 557.399 229.762 561.655 234.017C568.123 240.485 574.877 229.691 578.337 225.54C580.565 222.866 583.09 220.358 585.049 217.485C586.914 214.75 589.66 212.909 591.115 209.827C592.259 207.406 591.085 205.962 588.878 205.104C585.911 203.95 586.921 204.681 584.651 206.496ZM590.668 214.75C592.711 216.793 594.68 218.865 596.933 220.667C598.639 222.032 599.608 224.05 601.408 225.49M594.957 227.024C599.495 232.733 606.222 236.667 606.222 244.432C606.222 249.713 604.522 256.062 598.769 258.086C596.814 258.774 592.648 256.084 590.975 255.298C588.536 254.153 587.1 251.61 585.116 249.837C580.878 246.051 576.677 240.986 573.965 236.24" stroke="#407FC3" stroke-width="2" stroke-linecap="round" stroke-linejoin="round"/>
<path opacity="0.5" d="M537.941 290.328C541.873 288.972 544.854 283.832 546.279 279.314M546.279 279.314C546.653 278.126 546.92 276.982 547.069 275.96C547.683 271.742 545.249 267.739 541.302 266.074C536.607 264.093 532.068 268.457 533.624 273.291C534.072 274.681 535.76 276.157 536.722 277.179C537.69 278.208 538.831 278.462 540.182 278.695C542.247 279.051 544.213 279.447 546.279 279.314ZM546.279 279.314C546.611 279.292 546.945 279.257 547.283 279.206C547.324 279.2 547.365 279.194 547.406 279.188M547.406 279.188C551.66 278.559 557.636 278.498 560.481 274.84C563.887 270.46 559.5 265.652 554.615 267.343C549.892 268.978 547.767 273.049 547.448 277.838C547.417 278.297 547.404 278.746 547.406 279.188ZM547.406 279.188C547.428 283.844 549.197 287.63 551.287 291.811M527.857 283.506C525.693 289.072 524.662 295.7 526.21 301.565C527.007 304.585 528.635 307.264 530.889 309.424C534.441 312.828 538.149 312.506 542.802 312.703C546.96 312.879 551.164 312.569 555.241 311.747C558.859 311.018 561.281 309.613 563.645 306.738C567.416 302.151 565.515 296.104 566.264 290.707C566.774 287.038 565.946 283.313 563.892 280.277C561.87 277.288 556.215 277.815 553.198 278.102C549.534 278.451 545.811 278.761 542.126 278.761C538.31 278.761 534.639 278.312 530.823 278.761M566.116 277.278C569.202 277.834 570 280.5 570.454 283.21" stroke="#407FC3" stroke-width="2" stroke-linecap="round" stroke-linejoin="round"/>
<path opacity="0.5" d="M192.515 20.4145C188.248 19.2291 181.646 19.193 181.646 25.3365C181.646 30.8225 187.647 32.717 192.071 31.1472C194.27 30.3668 196.139 26.7567 196.139 24.5162C196.139 20.5162 194.924 17.7667 194.635 11.1858C194.346 4.60491 192.09 -3.5479 195.392 -8.30237C200.769 -16.0447 206.505 -12.6393 214.323 -10.3478C218.489 -9.12658 220.738 -8.66339 223.893 -5.73349C225.901 -3.86863 225.124 -0.275625 225.124 2.19637C225.124 6.29256 225 10.4081 225.158 14.5013C225.365 19.8919 225.54 25.2345 225.158 30.5871C225.011 32.6381 224.672 35.0704 222.731 36.1243C220.149 37.5258 214.852 39.4491 212.34 37.4232C205.576 31.9686 222.731 20.9316 222.731 29.9718M227.585 0.111366C228.025 3.69618 228.2 7.02915 228.2 10.5706" stroke="#407FC3" stroke-width="2" stroke-linecap="round" stroke-linejoin="round"/>
<path opacity="0.5" d="M467.416 257.218C463.939 253.161 460.86 253.582 455.779 253.824M473.373 271.18C474.681 270.892 475.975 270.799 477.059 270.901C481.087 271.282 484.954 272.344 488.588 274.161C496.657 278.195 495.477 290.942 492.632 297.086C488.882 305.187 478.37 313.903 469.84 316.856C461.215 312.603 454.022 309.424 449.153 300.801C444.33 292.261 440.053 275.821 445.139 266.43C448.465 260.29 458.106 258.408 462.971 260.39C467.165 262.098 472.047 265.256 473.373 271.18ZM473.373 271.18C470.504 271.811 467.572 273.376 466.662 275.858C465.794 278.225 466.149 287.421 470.595 284.37C473.155 282.613 473.751 276.938 473.719 274.242C473.706 273.147 473.585 272.128 473.373 271.18Z" stroke="#407FC3" stroke-width="2" stroke-linecap="round" stroke-linejoin="round"/>
<path opacity="0.5" d="M17.5723 -3.46249C14.0949 -7.51945 11.0162 -7.09847 5.93555 -6.85654M23.5294 10.4996C24.8371 10.212 26.1317 10.1187 27.2156 10.2212C31.2433 10.6022 35.1104 11.6634 38.7446 13.4806C46.8131 17.5148 45.6331 30.2616 42.7886 36.4056C39.0383 44.5063 28.5267 53.2227 19.9966 56.1755C11.3708 51.9223 4.17858 48.7442 -0.690926 40.1211C-5.51367 31.5808 -9.79114 15.1404 -4.70452 5.74968C-1.37896 -0.389816 8.26194 -2.27269 13.1272 -0.290615C17.3213 1.41805 22.2032 4.57539 23.5294 10.4996ZM23.5294 10.4996C20.6603 11.1304 17.728 12.6959 16.818 15.1776C15.95 17.5449 16.3051 26.7406 20.7508 23.6896C23.3113 21.9324 23.9068 16.2573 23.8755 13.5614C23.8627 12.4663 23.7416 11.4475 23.5294 10.4996Z" stroke="#407FC3" stroke-width="2" stroke-linecap="round" stroke-linejoin="round"/>
<path d="M568.807 765.266C572.665 765.337 576.4 765.383 580.134 765.481C584.373 765.593 588.612 765.747 592.85 765.893C594.265 765.942 594.783 766.362 594.839 767.76C594.968 771.004 595.1 774.253 595.058 777.497C595.02 780.416 594.752 783.332 594.586 786.25C594.582 786.321 594.584 786.393 594.586 786.464C594.607 787.256 594.398 788.161 594.715 788.806C595.003 789.392 595.908 789.644 596.459 790.137C597.529 791.097 598.554 792.108 599.572 793.124C600.415 793.967 600.388 793.96 601.487 793.477C602.14 793.184 602.816 792.947 603.508 792.768C604.013 792.641 604.543 792.751 604.787 793.31C605.03 793.869 604.923 794.46 604.415 794.758C603.248 795.455 602.042 796.082 600.802 796.638C600.201 796.903 599.613 796.525 599.157 796.071C598.263 795.182 597.386 794.278 596.488 793.394C595.982 792.896 595.449 792.426 594.735 791.766C594.836 793.132 594.916 794.22 594.999 795.351C595.299 795.523 595.617 795.685 595.913 795.881C597.699 797.06 598.073 798.978 596.856 800.743C595.925 802.093 594.617 802.648 593.026 802.372C591.654 802.133 590.629 801.372 590.289 799.947C589.948 798.513 590.488 797.331 591.5 796.336C591.719 796.14 591.949 795.959 592.19 795.792V791.765H583.183C582.994 792.528 582.845 793.303 582.607 794.048C581.586 797.249 579.844 799.898 576.794 801.507C575.038 802.434 573.128 802.762 571.178 802.822C566.906 802.953 562.877 802.103 559.755 798.981C555.812 795.037 553.918 790.352 555.645 784.723C556.383 782.318 557.875 780.366 559.8 778.78C561.473 777.402 563.284 776.233 565.395 775.619C565.593 775.541 565.785 775.45 565.969 775.345C565.969 774.217 565.966 773.065 565.969 771.912C565.986 767.725 565.984 763.536 566.042 759.35C566.052 758.625 565.775 758.289 565.153 758.104C563.022 757.469 560.892 756.832 558.763 756.193C558.488 756.11 558.204 756.053 557.939 755.947C557.043 755.585 556.603 754.916 556.793 754.236C557.005 753.48 557.766 753.058 558.698 753.242C559.366 753.374 560.02 753.577 560.677 753.759C562.266 754.199 563.864 754.615 565.44 755.103C566.226 755.35 566.989 755.668 567.72 756.052C568.638 756.53 568.973 757.331 568.92 758.389C568.813 760.55 568.79 762.717 568.739 764.881C568.748 765.011 568.771 765.141 568.807 765.266ZM592.481 773.619C584.399 774.221 576.44 773.641 568.415 773.678C568.386 774.176 568.361 774.621 568.335 775.068C569.582 775.285 570.703 775.583 571.838 775.66C577.276 776.031 581.933 780.521 583.025 785.713C583.253 786.795 583.355 787.905 583.51 788.973H592.195C592.291 783.818 592.385 778.785 592.481 773.619ZM571.086 799.73C571.594 799.673 572.564 799.612 573.516 799.445C574.81 799.218 576.007 798.721 576.936 797.753C578.2 796.435 579.157 794.92 579.568 793.115C580.042 791.185 580.15 789.181 579.884 787.211C579.331 783.5 577.27 780.932 573.878 779.52C572.543 778.963 571.038 778.822 569.616 778.468C566.528 777.699 564.001 778.735 561.752 780.831C560.191 782.286 558.927 783.922 558.445 786.029C557.481 790.239 559.014 793.69 561.919 796.604C564.303 798.995 567.388 799.619 571.086 799.73ZM568.698 771.127C576.602 771.025 584.431 771.328 592.312 770.798C592.334 770.402 592.365 770.085 592.366 769.768C592.367 769.454 592.338 769.14 592.324 768.843C589.683 768.414 570.501 767.821 568.698 768.123L568.698 771.127ZM593.435 797.54C592.762 798.145 592.474 798.785 592.781 799.231C592.894 799.376 593.036 799.496 593.198 799.582C593.359 799.669 593.538 799.721 593.72 799.733C593.976 799.732 594.372 799.397 594.459 799.129C594.741 798.279 594.076 797.933 593.435 797.54H593.435Z" fill="#407FC3" fill-opacity="0.55"/>
<path d="M570.535 795.954C569.241 795.686 567.897 795.561 566.662 795.124C562.782 793.753 560.984 789.597 562.559 785.787C563.474 783.576 565.173 782.401 567.509 781.923C569.189 781.544 570.933 781.551 572.61 781.941C574.176 782.317 575.554 783.25 576.488 784.567C577.422 785.884 577.85 787.496 577.692 789.105C577.642 789.752 577.54 790.394 577.387 791.025C576.682 793.662 574.946 795.187 572.28 795.647C571.715 795.744 571.14 795.779 570.57 795.843L570.535 795.954ZM570.207 793.216L570.241 793.087C570.741 793.053 571.245 793.045 571.742 792.98C572.755 792.846 573.647 792.377 574.122 791.487C575.46 788.983 574.817 785.945 571.958 785.002C570.691 784.62 569.4 784.323 568.093 784.114C567.686 784.031 567.265 784.051 566.867 784.17C566.47 784.29 566.108 784.506 565.813 784.8C563.891 786.703 563.81 791.117 567.202 792.505C568.144 792.89 569.202 792.987 570.207 793.215V793.216Z" fill="#407FC3" fill-opacity="0.55"/>
<path d="M524.915 699.123C524.752 699.494 524.592 699.866 524.426 700.236C524.234 700.711 523.918 701.125 523.511 701.432C523.105 701.739 522.624 701.928 522.12 701.979C520.897 702.153 519.651 701.965 518.532 701.438C517.223 700.814 516.673 699.83 516.767 698.37C516.818 697.492 517.133 696.652 517.67 695.961C518.206 695.27 518.937 694.761 519.767 694.503C519.945 694.447 520.115 694.369 520.355 694.275C520.314 692.184 520.606 690.078 520.166 688.003C520.015 687.394 519.734 686.826 519.343 686.339C518.922 685.794 518.296 685.725 517.74 686.134C517.26 686.486 516.844 686.92 516.509 687.417C515.515 688.924 514.993 690.622 514.753 692.409C514.491 694.363 514.291 696.327 513.994 698.275C513.295 702.861 508.565 705.272 504.474 703.142C502.481 702.104 501.583 700.325 501.543 698.156C501.508 696.189 501.667 694.216 501.799 692.249C501.894 690.822 502.088 689.401 502.229 687.976C502.242 687.751 502.243 687.527 502.233 687.302C500.515 686.676 498.829 686.165 497.227 685.459C492.815 683.515 490.336 679.992 489.437 675.275C488.984 672.981 489.122 670.607 489.838 668.383C490.843 665.277 492.966 663.233 496.011 662.173C496.28 662.086 496.557 662.028 496.837 661.998C497.277 661.944 497.65 661.884 497.955 661.442C498.329 660.898 498.866 660.98 499.265 661.529C499.441 661.813 499.538 662.139 499.547 662.473C499.557 662.808 499.478 663.139 499.319 663.432C498.892 664.09 498.39 664.079 497.604 663.395C495.014 663.744 491.768 666.563 491.181 670.234C490.829 672.443 490.816 674.652 491.566 676.745C492.654 679.783 494.547 682.192 497.587 683.469C498.774 683.967 500.02 684.32 501.211 684.807C503.207 685.622 505.153 685.213 506.806 684.149C510.124 682.012 512.986 679.31 514.794 675.694C516.263 672.754 516.288 669.751 514.638 666.83C513.506 664.823 511.718 663.737 509.563 663.179C509.195 663.084 508.913 663.134 508.663 663.477C508.384 663.859 507.981 664.053 507.502 663.853C507.052 663.665 506.852 663.277 506.777 662.812C506.594 661.672 506.845 661.176 507.763 661.025C508.037 660.98 508.35 661.111 508.632 661.202C508.944 661.303 509.233 661.528 509.548 661.567C512.593 661.949 514.916 663.472 516.462 666.135C518.46 669.576 518.308 673.117 516.725 676.66C515.75 678.842 514.244 680.641 512.528 682.251C511.239 683.461 509.892 684.609 508.537 685.743C507.609 686.524 506.442 686.956 505.236 686.966C504.928 686.987 504.621 687.024 504.317 687.077C504.271 687.175 504.236 687.278 504.214 687.384C504.084 689.801 503.927 692.216 503.847 694.634C503.805 695.81 503.845 696.988 503.966 698.159C504.232 700.658 505.901 701.918 508.355 701.558C510.457 701.251 511.504 700.306 511.881 698.177C512.147 696.676 512.27 695.149 512.44 693.633C512.738 690.99 513.236 688.414 514.707 686.131C515.418 685.027 516.31 684.177 517.586 683.81C518.7 683.49 519.695 683.764 520.596 684.466C522.034 685.587 522.503 687.177 522.656 688.905C522.847 690.79 522.723 692.695 522.29 694.539C522.42 694.627 522.555 694.705 522.696 694.773C523.8 695.211 524.525 695.978 524.769 697.176C524.786 697.26 524.866 697.33 524.916 697.406L524.915 699.123ZM521.398 700.154C522.351 700.046 522.737 699.748 522.969 698.856C523.188 698.016 522.865 697.013 522.229 696.56C521.393 695.964 520.537 695.871 519.882 696.372C519.516 696.648 519.23 697.018 519.052 697.443C518.874 697.868 518.811 698.334 518.869 698.792C518.903 698.955 518.973 699.109 519.074 699.242C519.174 699.374 519.302 699.482 519.449 699.558C520.07 699.825 520.745 699.963 521.398 700.153V700.154Z" fill="#407FC3" fill-opacity="0.55"/>
<path d="M522.131 698.068C522.127 698.341 522.018 698.601 521.829 698.794C521.639 698.988 521.383 699.099 521.114 699.105C520.814 699.106 520.526 698.989 520.31 698.778C520.095 698.567 519.969 698.279 519.96 697.975C519.957 697.839 519.981 697.705 520.031 697.579C520.081 697.453 520.156 697.339 520.251 697.243C520.346 697.147 520.459 697.072 520.583 697.022C520.708 696.972 520.841 696.948 520.975 696.951C521.124 696.944 521.273 696.968 521.413 697.021C521.552 697.074 521.68 697.155 521.788 697.259C521.896 697.364 521.982 697.489 522.041 697.628C522.1 697.767 522.131 697.917 522.131 698.068Z" fill="#407FC3" fill-opacity="0.55"/>
<path d="M26.2022 709.871C25.4803 710 24.8754 710.127 24.2647 710.213C21.5775 710.591 19.467 708.915 19.0722 706.239C18.4982 702.352 21.4492 698.096 24.2662 696.927C25.2195 696.532 26.334 696.524 27.6484 696.291C31.1514 688.229 37.8101 684.286 46.8519 683.737C46.985 682.253 47.1165 680.788 47.255 679.247C46.8644 679.087 46.396 679.026 46.1437 678.761C45.7764 678.374 45.3529 677.84 45.3514 677.368C45.3499 676.962 45.8557 676.27 46.2266 676.204C47.253 676.02 48.3727 675.895 49.3685 676.124C50.6399 676.416 50.8226 677.427 50.0126 678.466C49.8462 678.638 49.7386 678.859 49.7051 679.096C49.7727 680.417 49.888 681.734 49.9771 682.912C52.3571 683.124 54.6326 683.239 56.8818 683.544C64.2397 684.544 69.1123 688.681 71.7698 695.54C71.8142 695.654 71.8671 695.766 71.9223 695.876C71.9494 695.914 71.9813 695.949 72.0171 695.979C73.2399 695.979 74.4959 695.814 75.6923 696.013C78.2567 696.44 80.1733 697.825 80.8102 700.467C81.447 703.108 80.4331 705.301 78.4931 707.043C76.5852 708.756 74.2581 709.227 71.7378 708.905C71.6439 708.983 71.5626 709.075 71.4968 709.177C68.6793 715.806 63.4529 719.694 56.8229 721.877C51.065 723.788 44.8646 723.918 39.0316 722.25C32.5936 720.47 27.9394 716.753 26.2022 709.871ZM47.1649 720.118C48.5297 720.003 49.9038 719.95 51.2576 719.76C56.6882 718.997 61.4936 716.923 65.1795 712.735C71.649 705.387 70.0386 692.012 58.7545 688.302C54.5759 686.93 50.2144 686.085 45.7801 686.37C40.8164 686.688 36.4874 688.584 33.2854 692.511C30.3157 696.153 29.0058 700.475 28.8982 705.105C28.742 711.826 32.0176 716.392 38.3496 718.621C41.1876 719.592 44.1641 720.098 47.1636 720.118L47.1649 720.118ZM26.5017 698.956C26.3959 698.942 26.2885 698.943 26.183 698.96C23.7426 699.679 21.3437 703.868 21.9655 706.297C22.154 707.034 22.6206 707.472 23.3606 707.486C24.1656 707.502 24.9732 707.402 25.5624 707.366C25.8891 704.436 26.1935 701.709 26.501 698.956L26.5017 698.956ZM72.7807 705.357C74.1276 705.334 75.4205 704.823 76.4192 703.919C77.7763 702.688 77.9368 700.822 76.7686 699.746C75.6347 698.702 74.2753 698.401 72.7807 698.705V705.357Z" fill="#407FC3" fill-opacity="0.55"/>
<path d="M51.1353 707.188C51.7415 707.3 52.4148 707.286 52.9321 707.562C53.1673 707.691 53.3737 707.867 53.5389 708.079C53.704 708.29 53.8245 708.533 53.8929 708.792C53.9972 709.501 53.3823 709.865 52.707 709.954C52.3801 709.997 52.0479 709.978 51.7282 709.897C51.1516 709.723 50.5404 709.7 49.952 709.827C49.3636 709.955 48.8175 710.231 48.365 710.628C47.8516 711.05 47.2502 711.369 46.7344 710.744C46.2777 710.191 46.4873 709.549 46.943 709.055C47.4651 708.459 48.1103 707.983 48.8341 707.661C49.5579 707.339 50.3431 707.177 51.1353 707.188V707.188Z" fill="#407FC3" fill-opacity="0.55"/>
<path d="M40.8354 695.966C42.2464 696.015 43.1288 697.022 43.0525 698.496C42.9916 699.67 42.0483 700.617 40.9882 700.568C39.7903 700.513 38.8407 699.316 38.8919 697.923C38.9441 696.511 39.53 695.921 40.8354 695.966Z" fill="#407FC3" fill-opacity="0.55"/>
<path d="M54.4688 697.799C54.4663 696.622 54.918 696.088 55.9325 696.07C57.2436 696.047 58.0674 696.794 58.0372 697.98C58.011 699 57.2082 699.866 56.2654 699.889C55.1883 699.915 54.4716 699.081 54.4688 697.799Z" fill="#407FC3" fill-opacity="0.55"/>
</g>
<defs>
<clipPath id="clip0_63_5439">
<rect width="600" height="794" fill="white"/>
</clipPath>
</defs>
</svg>
